<?xml version="1.0" standalone="no"?>
<!DOCTYPE svg PUBLIC "-//W3C//DTD SVG 20010904//EN"
 "http://www.w3.org/TR/2001/REC-SVG-20010904/DTD/svg10.dtd">
<svg version="1.0" xmlns="http://www.w3.org/2000/svg"
 width="682.000000pt" height="682.000000pt" viewBox="0 0 682.000000 682.000000"
 preserveAspectRatio="xMidYMid meet">
<metadata>
Created by potrace 1.14, written by Peter Selinger 2001-2017
</metadata>
<g transform="translate(0.000000,682.000000) scale(0.100000,-0.100000)"
fill="#000000" stroke="none">
<path d="M0 3410 l0 -3410 3410 0 3410 0 0 3410 0 3410 -3410 0 -3410 0 0
-3410z m1411 1370 c159 -454 289 -828 289 -832 0 -5 -46 -8 -103 -8 l-103 0
-83 245 -84 245 -340 -2 -340 -3 -81 -240 -81 -240 -104 -3 c-96 -3 -103 -1
-97 15 10 25 522 1490 553 1581 l25 73 130 -3 131 -3 288 -825z m1231 409 c59
-13 154 -74 189 -120 40 -52 68 -112 84 -181 12 -51 15 -150 15 -505 l0 -443
-95 0 -95 0 0 403 c0 490 -8 545 -87 618 -57 53 -90 64 -198 64 -93 0 -105 -2
-166 -32 -47 -23 -75 -45 -95 -75 l-29 -41 -3 -469 -3 -468 -99 0 -100 0 2
618 3 617 97 3 97 3 3 -103 3 -103 22 40 c87 161 243 221 455 174z m1353 -1
c98 -24 190 -100 235 -194 51 -104 52 -121 57 -601 l5 -453 -101 0 -101 0 0
418 c0 339 -3 429 -15 475 -37 144 -134 207 -301 194 -120 -9 -207 -59 -245
-142 -17 -37 -19 -73 -19 -492 l0 -453 -90 0 -90 0 0 620 0 620 90 0 89 0 3
-102 3 -103 28 48 c37 63 101 125 153 148 82 37 195 43 299 17z m1305 -5 c169
-46 304 -180 364 -361 91 -275 35 -583 -139 -758 -202 -204 -553 -206 -755 -4
-75 75 -141 207 -166 329 -20 102 -15 292 11 386 40 147 140 292 242 351 131
78 293 98 443 57z m-4058 -2474 c179 -37 293 -157 329 -343 22 -117 4 -279
-42 -368 -45 -88 -144 -172 -237 -199 -28 -8 -41 -17 -38 -25 3 -7 88 -173
189 -369 l185 -355 -113 0 -114 0 -183 360 -183 360 -192 0 -193 0 0 -360 0
-360 -105 0 -105 0 0 835 0 835 375 0 c234 0 394 -4 427 -11z m1758 -79 l0
-90 -410 0 -410 0 0 -280 0 -280 390 0 391 0 -3 -87 -3 -88 -387 -3 -388 -2 0
-285 0 -285 410 0 410 0 0 -90 0 -90 -510 0 -510 0 0 835 0 835 510 0 510 0 0
-90z m1185 75 c158 -42 263 -151 304 -320 17 -68 15 -228 -4 -298 -45 -172
-154 -277 -324 -313 -47 -10 -142 -14 -328 -14 l-263 0 0 -355 0 -355 -95 0
-95 0 0 835 0 835 373 0 c303 0 384 -3 432 -15z"/>
<path d="M975 5408 c-19 -53 -275 -793 -275 -795 0 -7 570 -2 570 5 1 18 -275
802 -283 802 -4 0 -10 -6 -12 -12z"/>
<path d="M5013 5012 c-67 -24 -118 -64 -154 -121 -54 -84 -61 -129 -57 -359 3
-199 4 -209 29 -262 33 -69 87 -122 158 -158 50 -24 68 -27 156 -27 93 0 105
2 167 33 79 39 129 92 159 171 18 47 23 84 27 222 7 245 -14 335 -97 422 -63
68 -121 90 -236 94 -78 3 -111 -1 -152 -15z"/>
<path d="M650 2239 l0 -300 278 3 c261 3 279 4 317 25 95 51 115 99 115 275 0
107 -4 141 -19 173 -23 51 -79 101 -128 114 -22 6 -148 11 -300 11 l-263 0 0
-301z"/>
<path d="M3570 2240 l0 -300 258 0 c296 0 335 7 395 66 53 53 62 89 62 244 0
119 -3 140 -21 175 -27 50 -48 69 -104 94 -42 19 -65 21 -317 21 l-273 0 0
-300z"/>
</g>
</svg>
